# xmcd
#
# Track frame offsets:
#	150
#	16840
#	37169
#	61784
#	98650
#	130194
#	148455
#
# Disc length: 2421 seconds
#
# Revision: 1
# Processed by: cddbd v1.5.2PL0 Copyright (c) Steve Scherf et al.
# Submitted via: audiograbber 1.83.01
#
DISCID=5d097307
DTITLE=Rain - Live, Christmas Night
DYEAR=1971
DGENRE=Rock
TTITLE0=Tulane
TTITLE1=Billy Goat
TTITLE2=Boogie With Me Mama
TTITLE3=C. C. Rider
TTITLE4=Movin' On
TTITLE5=Tater Pie
TTITLE6=Built For Comfort
EXTD=
EXTT0=
EXTT1=
EXTT2=
EXTT3=
EXTT4=
EXTT5=
EXTT6=
PLAYORDER=
